<?xml version="1.0" encoding="utf-8"?>
<!-- Generator: Adobe Illustrator 13.0.0, SVG Export Plug-In . SVG Version: 6.00 Build 14948)  -->
<!DOCTYPE svg PUBLIC "-//W3C//DTD SVG 1.1//EN" "http://www.w3.org/Graphics/SVG/1.1/DTD/svg11.dtd">
<svg version="1.1" id="Слой_1" xmlns="http://www.w3.org/2000/svg" xmlns:xlink="http://www.w3.org/1999/xlink" x="0px" y="0px"
	 width="120px" height="120px" viewBox="0 0 120 120" enable-background="new 0 0 120 120" xml:space="preserve">
<circle fill="#E87B24" cx="60.248" cy="60.574" r="60.234"/>
<g>
	<line fill="#FFFFFF" x1="114.365" y1="27.409" x2="45.423" y2="98.414"/>
	<g>
		<line fill="none" x1="114.365" y1="27.409" x2="45.423" y2="98.414"/>
		<g>
			<g>
				<path fill="#FFFFFF" d="M114.365,27.409c-3.769,2.808-6.253,4.787-10.135,8.758c-4.204,4.302-25.176,25.929-25.176,25.929
					s-21,21.6-25.176,25.929c-3.856,3.997-5.76,6.539-8.456,10.389c3.768-2.809,6.253-4.786,10.135-8.759
					c4.204-4.302,25.175-25.929,25.175-25.929s21-21.6,25.176-25.929C109.765,33.801,111.669,31.259,114.365,27.409z"/>
			</g>
		</g>
	</g>
</g>
<g>
	<line fill="#FFFFFF" x1="48.497" y1="17.438" x2="113.886" y2="86.894"/>
	<g>
		<line fill="none" x1="48.497" y1="17.438" x2="113.886" y2="86.894"/>
		<g>
			<g>
				<path fill="#FFFFFF" d="M48.497,17.438c2.521,3.769,4.308,6.257,7.964,10.167c3.96,4.235,23.878,25.363,23.878,25.363
					s19.89,21.155,23.878,25.363c3.683,3.886,6.059,5.819,9.668,8.563c-2.521-3.769-4.309-6.257-7.965-10.167
					c-3.959-4.234-23.878-25.363-23.878-25.363S62.153,30.208,58.165,26C54.483,22.116,52.107,20.182,48.497,17.438z"/>
			</g>
		</g>
	</g>
</g>
<ellipse fill="#FFFFFF" stroke="#FFFFFF" cx="85.455" cy="56.962" rx="5.355" ry="5.564"/>
</svg>
